<?xml version="1.0" standalone="no"?>
<!DOCTYPE svg PUBLIC "-//W3C//DTD SVG 20010904//EN"
 "http://www.w3.org/TR/2001/REC-SVG-20010904/DTD/svg10.dtd">
<svg version="1.0" xmlns="http://www.w3.org/2000/svg"
 width="2048.000000pt" height="2048.000000pt" viewBox="0 0 2048.000000 2048.000000"
 preserveAspectRatio="xMidYMid meet">
<metadata>
Created by potrace 1.11, written by Peter Selinger 2001-2013
</metadata>
<g transform="translate(0.000000,2048.000000) scale(0.100000,-0.100000)"
fill="#000000" stroke="none">
<path d="M0 10240 l0 -10240 10240 0 10240 0 0 10240 0 10240 -10240 0 -10240
0 0 -10240z m10616 5970 c612 -22 1042 -43 1204 -59 55 -5 65 -9 68 -26 1 -11
5 -31 8 -43 3 -13 154 -178 340 -370 424 -438 444 -458 481 -465 105 -21 196
90 149 181 -9 18 -158 177 -330 355 -173 177 -313 323 -311 325 6 6 553 -69
795 -109 1608 -265 2979 -730 4119 -1396 148 -87 481 -303 481 -313 0 -3 -189
-102 -421 -220 -275 -140 -429 -225 -445 -243 -46 -55 -26 -160 38 -193 64
-33 92 -22 596 236 l472 242 55 -42 c176 -136 428 -370 584 -543 484 -536 748
-1068 833 -1672 19 -132 15 -455 -6 -593 -71 -464 -261 -893 -585 -1326 -188
-251 -207 -270 -745 -731 -199 -170 -218 -184 -395 -282 -277 -154 -436 -230
-536 -259 -265 -75 -481 -124 -635 -143 -515 -66 -1085 -229 -2304 -658 -555
-196 -1385 -477 -1391 -471 -3 2 95 55 216 118 135 69 227 122 236 137 9 13
18 42 20 66 5 48 -24 102 -67 124 -62 32 -79 25 -584 -233 -266 -136 -494
-259 -511 -275 -27 -26 -30 -36 -30 -88 l0 -59 -95 -22 c-169 -39 -629 -128
-850 -164 -486 -80 -710 -98 -1084 -85 -1136 39 -2406 330 -3996 914 -392 144
-727 273 -1280 495 -601 240 -852 334 -1032 389 -140 43 -293 106 -541 224
-130 62 -150 76 -375 258 -255 207 -674 556 -733 610 -36 33 -149 167 -319
379 -93 114 -299 449 -385 625 -49 99 -150 374 -140 383 2 2 13 -2 26 -8 48
-26 97 -6 579 240 521 265 540 278 540 352 0 55 -17 87 -60 116 -27 18 -44 23
-75 19 -43 -4 -979 -476 -1022 -515 -22 -20 -24 -20 -31 -4 -12 29 -7 382 6
477 77 540 315 1047 716 1530 203 243 527 547 814 763 138 104 348 252 358
252 4 0 41 -37 83 -82 42 -46 217 -230 389 -410 233 -244 321 -329 347 -338
91 -30 188 53 171 145 -8 39 -62 98 -520 569 -137 141 -247 259 -244 261 21
21 359 208 558 309 451 228 771 364 1305 552 859 303 1904 541 2943 670 l299
38 23 -22 c13 -12 40 -27 59 -32 45 -12 1051 -13 1105 -1 49 12 94 55 102 98
6 33 7 33 63 34 31 1 115 5 186 8 204 12 409 12 711 1z m-8961 -6595 c319
-355 346 -382 513 -518 355 -288 400 -320 597 -429 351 -194 471 -257 525
-277 30 -11 189 -67 352 -125 381 -136 792 -290 1083 -406 1542 -617 2610
-962 3605 -1165 1075 -219 1953 -265 2760 -144 792 119 1577 347 3265 947
1037 368 1678 548 2181 612 260 33 360 54 581 125 190 61 233 79 492 211 313
159 340 178 766 528 343 282 419 354 586 558 49 60 89 103 89 95 0 -26 -117
-595 -209 -1012 -150 -686 -167 -780 -181 -1013 -16 -252 -53 -420 -136 -632
-476 -1202 -2225 -2380 -4474 -3014 -1708 -482 -3524 -634 -5360 -450 -1061
106 -2284 380 -3184 713 -824 306 -1444 611 -2041 1006 -776 513 -1349 1124
-1589 1695 -97 230 -139 417 -156 691 -16 242 -34 351 -213 1269 -89 450 -131
682 -161 885 -14 94 -28 182 -31 198 -2 15 -3 27 -1 27 2 0 155 -169 341 -375z"/>
<path d="M11398 15601 c-73 -37 -293 -150 -488 -249 -196 -100 -366 -192 -379
-206 -34 -36 -39 -110 -11 -154 25 -40 81 -66 127 -59 29 5 934 461 1000 504
29 19 53 69 53 110 0 38 -33 89 -69 108 -55 28 -92 19 -233 -54z"/>
<path d="M7920 15303 c-61 -23 -961 -491 -982 -511 -53 -50 -46 -151 14 -193
68 -49 77 -46 588 215 256 131 480 247 498 258 63 38 80 118 39 179 -12 18
-34 39 -47 46 -26 13 -83 16 -110 6z"/>
<path d="M5562 15040 c-34 -21 -62 -71 -62 -111 0 -32 39 -95 68 -110 20 -11
136 -14 599 -14 l575 0 33 37 c19 20 37 49 41 64 11 42 -16 105 -55 131 l-34
23 -566 0 c-550 0 -567 -1 -599 -20z"/>
<path d="M11783 14994 c-20 -10 -40 -32 -53 -58 -25 -52 -25 -60 0 -112 38
-77 15 -74 647 -74 536 0 559 1 590 20 62 37 81 116 43 178 -38 63 -32 62
-642 62 -484 0 -557 -2 -585 -16z"/>
<path d="M8828 14593 c-42 -26 -62 -72 -56 -128 10 -82 13 -83 460 -236 289
-98 396 -139 378 -142 -14 -3 -59 -9 -100 -12 -158 -13 -353 -37 -556 -70
-771 -125 -1392 -350 -1802 -654 -100 -75 -215 -182 -205 -192 13 -12 230 -84
345 -114 l107 -28 87 57 c288 186 725 353 1179 451 294 64 674 118 1020 145
221 18 801 29 1010 19 878 -42 1675 -262 2210 -610 l107 -70 97 26 c108 29
329 101 349 114 10 6 -7 27 -61 77 -336 313 -956 594 -1651 749 -452 100
-1050 155 -1518 140 l-208 -7 0 36 c0 48 -23 92 -58 110 -66 34 -1032 356
-1068 356 -22 0 -51 -8 -66 -17z"/>
<path d="M14631 14572 c-89 -49 -91 -181 -3 -226 59 -30 1032 -356 1064 -356
99 1 160 112 108 197 -10 17 -28 37 -39 42 -40 22 -1017 352 -1056 357 -28 4
-50 0 -74 -14z"/>
<path d="M16456 13249 c-75 -59 -73 -162 5 -217 22 -15 76 -17 569 -20 300 -2
559 0 577 3 44 8 89 48 103 91 16 49 -9 118 -54 145 -30 18 -57 19 -602 19
-564 0 -572 0 -598 -21z"/>
<path d="M5773 13030 c-62 -37 -81 -116 -43 -178 36 -59 55 -62 400 -62 l310
0 -20 -40 c-39 -76 -19 -140 71 -226 385 -363 1907 -614 3724 -614 1350 0
2529 135 3250 371 176 58 385 164 462 233 60 55 103 122 103 162 0 24 -24 58
-102 143 l-57 63 -133 -65 c-291 -143 -719 -255 -1303 -341 -707 -104 -1286
-140 -2260 -140 -631 -1 -798 5 -1320 45 -870 66 -1687 220 -2065 388 l-45 20
88 0 c111 1 148 17 177 75 11 23 20 48 20 56 0 8 -9 33 -20 56 -38 77 -15 74
-647 74 -536 0 -559 -1 -590 -20z"/>
<path d="M14460 12690 c-57 -18 -965 -490 -991 -515 -53 -49 -50 -126 6 -182
28 -28 40 -33 80 -33 42 0 101 27 529 246 264 135 494 258 509 273 61 60 42
162 -37 201 -45 21 -57 23 -96 10z"/>
<path d="M5202 12419 c-845 -432 -792 -400 -792 -488 0 -79 65 -138 139 -128
45 6 982 484 1021 520 79 75 17 217 -94 217 -27 0 -98 -31 -274 -121z"/>
<path d="M2545 12447 c-19 -19 -37 -46 -41 -60 -16 -68 31 -148 97 -161 17 -3
272 -6 566 -6 579 0 578 0 621 55 47 60 32 147 -32 186 -29 18 -61 19 -604 19
l-574 0 -33 -33z"/>
<path d="M17573 11830 c-61 -37 -81 -116 -43 -177 10 -17 28 -37 39 -43 48
-25 1046 -360 1075 -360 62 0 126 66 126 129 0 36 -27 88 -54 106 -38 25
-1043 365 -1079 365 -18 0 -46 -9 -64 -20z"/>
<path d="M10494 11776 c-37 -16 -70 -57 -79 -95 -9 -41 15 -102 51 -126 51
-34 1033 -365 1083 -365 37 0 49 6 82 39 33 33 39 45 39 82 0 47 -26 101 -57
117 -34 18 -1024 353 -1056 358 -18 2 -46 -2 -63 -10z"/>
<path d="M8815 11723 c-32 -8 -75 -54 -86 -93 -9 -30 -8 -44 7 -77 13 -27 151
-177 399 -432 314 -323 386 -393 417 -402 65 -17 125 9 152 66 21 44 20 83 -3
120 -17 29 -737 777 -772 802 -19 14 -85 24 -114 16z"/>
<path d="M14632 11164 c-549 -279 -693 -357 -708 -379 -39 -60 -21 -148 38
-185 63 -40 83 -33 598 230 520 265 540 278 540 352 0 77 -58 138 -130 138
-21 0 -137 -54 -338 -156z"/>
<path d="M7070 11191 c-59 -20 -965 -491 -991 -515 -80 -76 -19 -216 94 -216
32 0 132 47 521 246 525 267 546 281 546 354 0 74 -41 123 -111 134 -19 3 -45
1 -59 -3z"/>
<path d="M16753 11003 c-31 -6 -81 -66 -88 -107 -9 -44 18 -102 59 -127 29
-18 61 -19 596 -19 543 0 566 1 597 20 59 35 78 101 47 165 -34 73 -5 70 -629
71 -308 1 -570 0 -582 -3z"/>
<path d="M14816 10529 c-41 -12 -85 -57 -92 -95 -14 -73 -10 -78 382 -483 205
-212 388 -396 405 -408 66 -47 153 -22 191 55 38 80 41 77 -384 514 -209 216
-390 398 -402 404 -34 18 -69 22 -100 13z"/>
<path d="M2725 10113 c-49 -11 -76 -28 -95 -58 -44 -71 -12 -168 65 -193 30
-10 162 -12 589 -10 522 3 552 4 579 22 79 54 75 172 -7 222 -29 18 -61 19
-571 21 -297 0 -549 -1 -560 -4z"/>
<path d="M7093 9831 c-62 -38 -81 -117 -43 -179 39 -64 31 -63 656 -60 l566 3
34 37 c29 33 34 45 34 88 0 43 -5 55 -34 88 l-34 37 -574 3 c-555 2 -574 2
-605 -17z"/>
<path d="M12850 9577 c-47 -16 -80 -68 -80 -125 0 -38 5 -50 39 -83 l39 -39
572 0 c511 0 575 2 600 16 88 53 75 198 -20 231 -50 17 -1100 17 -1150 0z"/>
<path d="M5424 9510 c-11 -4 -33 -22 -47 -40 -21 -25 -27 -42 -27 -81 0 -42 5
-54 33 -84 29 -31 77 -49 551 -211 570 -193 569 -193 627 -138 56 53 56 134 2
186 -21 20 -150 68 -543 202 -283 97 -528 176 -545 175 -16 0 -39 -4 -51 -9z"/>
<path d="M9710 8941 c-47 -11 -977 -491 -1003 -517 -51 -51 -47 -134 9 -184
28 -24 44 -30 81 -30 40 0 104 30 527 246 265 135 494 258 509 273 88 87 -1
241 -123 212z"/>
</g>
</svg>
